<?xml version="1.0" standalone="no"?>
<!DOCTYPE svg PUBLIC "-//W3C//DTD SVG 20010904//EN"
 "http://www.w3.org/TR/2001/REC-SVG-20010904/DTD/svg10.dtd">
<svg version="1.0" xmlns="http://www.w3.org/2000/svg"
 width="688.000000pt" height="688.000000pt" viewBox="0 0 688.000000 688.000000"
 preserveAspectRatio="xMidYMid meet">
<metadata>
Created by potrace 1.11, written by Peter Selinger 2001-2013
</metadata>
<g transform="translate(0.000000,688.000000) scale(0.100000,-0.100000)"
fill="#000000" stroke="none">
<path d="M3097 6874 c-2 -2 -53 -6 -113 -9 -60 -2 -138 -7 -174 -10 -36 -4
-83 -8 -105 -10 -88 -7 -181 -16 -195 -20 -8 -2 -42 -7 -75 -10 -69 -7 -97
-12 -180 -26 -33 -6 -71 -13 -85 -15 -14 -2 -34 -6 -46 -9 -12 -3 -39 -7 -60
-10 -21 -4 -47 -8 -56 -11 -9 -3 -26 -7 -37 -9 -12 -3 -31 -7 -43 -10 -13 -3
-36 -8 -53 -11 -16 -2 -48 -10 -70 -15 -22 -6 -49 -13 -60 -16 -26 -6 -37 -9
-55 -16 -8 -3 -55 -17 -105 -31 -482 -132 -905 -392 -1089 -670 -75 -112 -98
-166 -144 -338 -15 -57 -7 -387 13 -533 4 -27 8 -59 10 -70 1 -11 5 -36 9 -55
3 -19 8 -46 10 -60 28 -160 106 -432 157 -547 11 -24 19 -45 19 -48 0 -31 148
-319 247 -480 7 -11 18 -30 24 -42 7 -13 16 -23 21 -23 4 0 8 -5 8 -11 0 -12
166 -234 224 -299 122 -137 336 -339 450 -423 28 -22 62 -48 76 -58 114 -89
384 -245 551 -318 176 -77 400 -153 549 -186 105 -23 216 -44 269 -51 19 -2
41 -12 50 -22 9 -9 33 -30 54 -45 50 -38 117 -106 118 -120 0 -7 1 -288 1
-625 1 -477 -1 -617 -11 -635 -7 -12 -43 -47 -80 -79 l-67 -56 -124 -6 c-129
-7 -170 -10 -305 -22 -44 -4 -95 -8 -112 -8 -18 -1 -33 -3 -33 -6 0 -3 -15 -5
-33 -6 -32 -1 -125 -11 -162 -18 -11 -2 -42 -7 -68 -10 -27 -4 -57 -9 -67 -11
-9 -2 -33 -6 -51 -9 -35 -6 -65 -12 -109 -21 -14 -3 -35 -7 -47 -9 -114 -22
-325 -96 -402 -141 -90 -53 -125 -102 -114 -159 6 -29 78 -106 100 -106 7 0
13 -4 13 -9 0 -5 8 -11 18 -14 9 -3 56 -22 105 -41 72 -30 224 -75 312 -92
245 -49 448 -76 725 -99 56 -5 251 -16 350 -21 93 -4 628 -4 730 0 69 3 233
13 355 21 28 2 66 6 85 9 19 3 67 8 105 11 39 3 81 7 95 10 14 2 45 7 70 10
25 3 54 7 65 9 11 2 41 6 66 10 140 20 336 65 449 102 355 118 416 250 175
374 -102 51 -294 113 -425 136 -14 2 -45 8 -70 14 -39 8 -98 18 -150 26 -78
11 -143 20 -220 29 -118 15 -327 32 -480 40 -114 6 -115 6 -165 45 -27 21 -66
55 -85 75 l-35 36 -1 627 -1 627 65 62 c90 87 129 111 187 117 28 3 61 8 75
11 14 3 41 8 60 10 19 3 46 8 60 12 42 10 44 11 70 17 56 12 67 14 110 27 25
7 50 13 55 15 29 6 211 67 220 73 6 4 28 13 50 20 98 33 321 144 469 233 56
34 103 64 106 68 3 4 16 13 30 20 28 15 220 161 265 201 17 15 41 37 55 49 91
79 283 281 350 369 14 18 30 38 35 44 6 7 33 44 60 82 27 39 52 72 56 75 4 3
17 24 29 48 12 23 27 42 33 42 6 0 7 3 4 7 -4 3 -1 13 6 22 43 51 184 330 234
460 58 151 83 226 107 313 26 96 60 246 70 308 3 19 8 46 10 60 27 160 41 515
23 621 -14 86 -97 293 -127 319 -4 3 -20 25 -37 50 -34 50 -150 171 -201 210
-18 14 -45 35 -60 48 -45 39 -198 130 -310 186 -267 134 -646 252 -1027 321
-78 15 -211 36 -247 41 -24 3 -56 7 -73 9 -16 2 -66 8 -110 14 -44 6 -111 13
-150 16 -155 14 -192 17 -250 21 -80 6 -813 13 -818 8z m808 -409 c50 -3 108
-7 130 -10 22 -2 69 -7 105 -10 36 -3 76 -7 90 -9 14 -2 50 -6 80 -10 30 -4
73 -9 95 -12 22 -3 54 -7 70 -9 17 -2 39 -6 50 -8 11 -3 54 -10 95 -17 41 -6
91 -15 110 -20 19 -5 51 -11 71 -14 20 -3 42 -8 50 -10 8 -3 25 -8 39 -10 14
-3 54 -12 90 -21 36 -9 70 -18 75 -19 134 -33 366 -117 498 -180 53 -26 100
-46 106 -46 6 0 11 -3 11 -7 0 -5 25 -21 55 -38 30 -16 55 -33 55 -37 0 -4 7
-8 15 -8 8 0 15 -4 15 -10 0 -5 6 -10 14 -10 19 0 178 -156 215 -213 18 -26
43 -77 56 -112 22 -61 23 -77 20 -233 -2 -92 -6 -177 -9 -189 -2 -12 -7 -46
-10 -75 -4 -29 -8 -64 -11 -78 -3 -14 -8 -45 -11 -70 -3 -25 -10 -53 -15 -62
-6 -10 -7 -18 -4 -18 4 0 3 -5 -1 -12 -4 -7 -9 -26 -11 -43 -2 -16 -10 -51
-18 -76 -9 -25 -17 -54 -19 -65 -6 -25 -60 -178 -82 -229 -10 -22 -18 -45 -20
-51 -6 -31 -134 -272 -191 -361 -18 -28 -33 -54 -33 -57 0 -3 -6 -14 -14 -23
-8 -10 -43 -57 -78 -104 -164 -221 -396 -448 -603 -590 -27 -19 -52 -37 -55
-40 -3 -3 -34 -23 -70 -45 -36 -21 -68 -43 -72 -49 -4 -5 -8 -6 -8 -2 0 5 -13
-1 -30 -13 -46 -33 -284 -143 -395 -183 -229 -83 -467 -136 -689 -154 -85 -7
-419 -10 -430 -5 -5 3 -30 6 -55 8 -57 4 -127 12 -166 19 -16 3 -46 8 -65 11
-73 13 -86 15 -125 26 -22 5 -47 12 -55 13 -39 9 -137 36 -150 42 -20 8 -18 8
-72 23 -27 7 -48 17 -48 23 0 6 -3 8 -6 4 -8 -8 -162 57 -294 126 -63 33 -125
65 -137 71 -13 6 -23 14 -23 19 0 4 -4 7 -10 7 -9 0 -188 116 -200 130 -3 3
-25 21 -50 40 -70 54 -79 62 -139 115 -73 65 -183 178 -246 250 -63 73 -190
242 -207 275 -7 14 -16 27 -20 30 -19 15 -143 243 -198 365 -42 93 -124 323
-130 367 -1 4 -6 22 -11 40 -10 31 -13 44 -24 93 -2 11 -7 31 -10 45 -3 14 -8
43 -10 64 -3 21 -7 42 -9 45 -2 3 -7 33 -11 66 -4 33 -9 74 -11 90 -12 81 -11
350 1 386 8 20 11 40 8 43 -4 3 -1 6 5 6 7 0 12 7 12 16 0 27 86 147 143 200
72 66 133 114 146 114 6 0 11 5 11 10 0 6 4 10 10 10 5 0 35 16 66 36 84 54
335 167 397 179 9 2 21 6 26 10 11 6 192 63 225 70 12 2 46 11 76 20 30 8 66
17 80 20 14 2 79 16 146 30 66 13 138 27 160 30 21 3 64 10 94 15 90 15 129
20 189 26 31 2 63 7 71 9 8 2 49 7 90 10 41 3 95 8 120 10 25 2 101 7 170 11
69 3 126 7 128 9 5 4 684 -4 777 -10z"/>
<path d="M2307 5613 c-3 -5 -5 -35 -4 -68 1 -44 -5 -73 -22 -108 -13 -26 -27
-47 -32 -47 -5 0 -9 -4 -9 -10 0 -15 -94 -99 -168 -150 -114 -78 -172 -107
-317 -155 -220 -73 -396 -167 -463 -247 -14 -17 -32 -36 -39 -44 -8 -7 -25
-38 -38 -68 -22 -49 -24 -66 -21 -153 3 -54 7 -109 10 -123 13 -55 17 -80 17
-85 -2 -14 56 -159 91 -230 36 -73 111 -193 128 -205 4 -3 9 -10 11 -16 18
-50 267 -297 393 -389 23 -16 43 -33 44 -37 2 -5 9 -8 16 -8 7 0 21 -9 31 -20
10 -11 24 -20 31 -20 7 0 14 -4 16 -8 5 -14 177 -116 293 -174 146 -73 375
-165 485 -193 8 -3 51 -14 95 -26 44 -11 89 -23 100 -24 11 -2 31 -6 45 -8
125 -25 263 -39 385 -39 86 0 234 9 278 18 12 2 39 6 62 9 22 3 48 8 58 11 10
3 31 7 48 9 17 3 39 7 49 10 10 3 27 7 37 9 52 11 222 61 305 90 154 55 435
177 448 194 3 4 11 8 18 10 7 1 31 13 52 27 22 14 42 25 44 25 16 0 301 191
353 237 17 15 51 44 74 63 64 52 206 197 253 259 172 225 257 438 260 646 1
87 -2 106 -23 150 -27 54 -138 171 -186 195 -16 8 -32 18 -35 21 -19 23 -352
156 -434 174 -13 2 -48 11 -131 31 -33 8 -71 17 -85 20 -14 2 -48 9 -76 15
-100 20 -270 46 -344 53 -30 3 -65 8 -76 10 -12 2 -43 5 -70 7 -27 1 -57 6
-66 11 -10 5 -19 4 -23 -2 -4 -6 -10 -8 -15 -5 -18 11 -95 17 -370 30 -105 5
-572 5 -660 0 -36 -1 -117 -6 -180 -10 -63 -4 -136 -8 -161 -10 -26 -1 -51 -5
-57 -9 -6 -4 -20 3 -31 16 -10 13 -38 46 -61 73 -73 86 -212 225 -226 225 -3
0 -20 10 -37 23 -35 24 -63 32 -70 20z"/>
</g>
</svg>
